PathFileType	4	(X/Y/Z)	s02c0102.trc
DataRate	CameraRate	NumFrames	NumMarkers	Units	OrigDataRate	OrigDataStartFrame	OrigNumFrames
200	200	6	51	mm	200	500	2000
Frame#	Time	racr			lacr			c7			jug			rlel			rdr			llel			ldr			s2			lic			ric			lasi			rasi			rpsi			lpsi			rgt			lgt			rth1			rth2			rth3			rth4			rlfc			rmfc			rsh1			rsh2			rsh3			rsh4			rlmal			rmmal			rcal			rtoe			rmt5			rmt1			lth1			lth2			lth4			lth3			llfc			lmfc			lsh1			lsh2			lsh3			lsh4			llmal			lmmal			lcal			ltoe			lmt5			SBIKE			LBIKE			RBIKE			
		X1	Y1	Z1	X2	Y2	Z2	X3	Y3	Z3	X4	Y4	Z4	X5	Y5	Z5	X6	Y6	Z6	X7	Y7	Z7	X8	Y8	Z8	X9	Y9	Z9	X10	Y10	Z10	X11	Y11	Z11	X12	Y12	Z12	X13	Y13	Z13	X14	Y14	Z14	X15	Y15	Z15	X16	Y16	Z16	X17	Y17	Z17	X18	Y18	Z18	X19	Y19	Z19	X20	Y20	Z20	X21	Y21	Z21	X22	Y22	Z22	X23	Y23	Z23	X24	Y24	Z24	X25	Y25	Z25	X26	Y26	Z26	X27	Y27	Z27	X28	Y28	Z28	X29	Y29	Z29	X30	Y30	Z30	X31	Y31	Z31	X32	Y32	Z32	X33	Y33	Z33	X34	Y34	Z34	X35	Y35	Z35	X36	Y36	Z36	X37	Y37	Z37	X38	Y38	Z38	X39	Y39	Z39	X40	Y40	Z40	X41	Y41	Z41	X42	Y42	Z42	X43	Y43	Z43	X44	Y44	Z44	X45	Y45	Z45	X46	Y46	Z46	X47	Y47	Z47	X48	Y48	Z48	X49	Y49	Z49	X50	Y50	Z50	X51	Y51	Z51	
500	2.5000	556.326222	1253.541739	-165.413736	537.463747	1255.674752	-498.540474	539.707010	1287.805227	-340.672454	466.296308	1166.041927	-326.284334	581.052586	997.662884	-72.194082	728.676702	846.713572	-131.288398	506.461707	977.485441	-570.751677	702.571773	862.370341	-519.274990	11.319884	1128.605062	-336.468866	160.235708	1115.627399	-470.752505	125.725275	1144.654975	-188.802417	202.717384	1087.645101	-439.172443	174.090793	1106.254083	-207.115424	35.774549	1185.190513	-294.585060	52.492167	1186.860263	-375.437170	101.176897	1068.106154	-138.227333	107.748801	1027.240783	-495.518649	188.978492	1035.711957	-138.303850	276.823816	1022.756384	-136.785918	345.139001	978.075726	-109.136443	289.855553	1044.783727	-165.219493	451.814960	876.057312	-134.610290	442.857322	857.728281	-247.086086	393.139026	779.024781	-125.817908	339.576557	711.518632	-148.923266	262.911137	672.773112	-146.013783	350.629826	704.360236	-186.462709	165.922872	604.414834	-154.799037	182.957320	619.039987	-236.222796	79.401142	601.031371	-199.158007	314.163263	434.182466	-190.826736	214.244118	483.215260	-137.242098	244.613298	475.384044	-243.049437	203.213992	923.230633	-514.253730	262.026029	859.053914	-508.392312	291.272719	874.933142	-492.673081	279.915734	771.785652	-507.943345	324.680106	685.392360	-488.089254	326.221631	652.887436	-390.302736	322.322790	581.664649	-515.060792	345.535103	499.325930	-502.148941	323.263068	411.230038	-506.396798	362.160964	501.391265	-464.687345	315.079706	305.497161	-496.950166	325.104889	301.681683	-417.341430	243.561766	281.055740	-462.912440	504.590695	155.915668	-435.018043	405.400802	176.391856	-507.252637	-164.880961	857.681624	-316.091071	33.168607	81.940477	-515.258515	33.100772	82.146589	-115.121100	
501	2.5050	556.171956	1253.813120	-164.786549	538.625295	1255.109845	-497.954979	540.099392	1287.781603	-339.938985	466.796104	1165.899712	-325.601676	580.740115	997.640759	-72.146777	728.655903	847.039309	-131.143976	507.733095	977.590276	-571.829950	703.128607	861.724280	-519.137385	11.462821	1128.923359	-337.377313	160.759906	1114.715574	-471.285353	125.481493	1145.199760	-189.501836	203.120406	1087.343931	-439.581984	173.737338	1106.737149	-207.837957	35.960714	1185.603779	-295.711754	52.560814	1187.219797	-376.435435	100.964551	1069.354025	-138.800526	107.655065	1026.643492	-495.853110	188.875190	1037.679590	-138.407683	276.747930	1025.550137	-137.397384	345.681775	981.550285	-109.825511	289.476713	1047.572807	-165.667920	453.282218	880.679759	-134.863386	444.657755	862.060689	-247.731468	395.301107	783.276280	-126.191669	342.005904	715.579494	-149.343524	265.622175	676.158620	-146.397648	353.254077	708.326367	-186.752632	169.191346	607.270017	-155.145539	186.710600	621.640622	-235.926329	82.767296	603.024732	-199.337997	318.445089	438.491295	-191.554495	218.875686	486.834563	-137.379006	249.384783	479.226058	-243.143412	202.242794	921.897555	-514.654366	260.510405	857.125305	-508.750782	289.858926	872.805629	-492.899561	277.493689	769.756631	-508.026655	321.500703	683.047442	-488.119242	322.725852	650.413285	-390.393533	318.813154	579.514233	-515.151048	342.185480	497.132741	-502.252175	319.996181	409.083844	-506.652987	358.759850	499.293793	-464.865175	312.174510	303.389902	-497.123346	322.356429	299.422090	-417.531706	240.648031	280.142086	-462.772981	499.602399	150.839275	-434.900831	400.711360	172.789537	-507.173816	-164.852019	857.641170	-316.220347	33.169411	81.947121	-515.276829	33.107610	82.140800	-115.117278	
502	2.5100	555.936545	1254.042057	-164.067941	539.819048	1254.557493	-496.993977	540.360770	1287.707910	-339.265950	467.510882	1165.496483	-325.009487	580.388542	997.577033	-72.089257	728.667556	847.338237	-130.848713	509.101694	977.636716	-572.971663	703.732059	861.006128	-519.044306	11.638388	1129.097767	-338.005875	161.116933	1115.024433	-471.689775	125.150548	1145.688267	-190.346865	203.376534	1087.021251	-439.921992	173.576159	1106.947837	-208.289136	36.125828	1185.922769	-296.842852	52.665038	1187.441724	-377.437817	100.703792	1070.608995	-139.429606	107.568381	1026.115498	-496.061311	188.751224	1039.599310	-138.562565	276.704689	1028.224870	-138.074443	346.170576	985.009049	-110.600250	289.021266	1050.183970	-166.515987	454.690223	885.400938	-134.973838	446.194896	866.320666	-248.483827	397.549293	787.593952	-126.556865	344.587922	719.249535	-149.772522	268.415170	679.598708	-146.787191	355.869453	711.969559	-187.137371	172.604877	609.958014	-155.471451	189.907182	624.498070	-236.250135	86.230514	604.767063	-199.386344	323.747839	442.980495	-191.739439	223.699182	490.328253	-137.454469	254.221806	483.078937	-243.324613	201.346637	920.596456	-515.033803	259.103538	855.358787	-509.184133	288.556232	870.769770	-493.099543	275.224853	767.758565	-508.094420	318.475317	680.974197	-488.192327	319.439785	648.234030	-390.298367	315.528991	577.535292	-515.259805	338.893482	495.179898	-502.443885	316.741936	407.089198	-506.774834	355.527721	497.250466	-464.998640	309.242309	301.424726	-497.228274	319.275708	297.390001	-417.704167	237.599161	279.420766	-462.744638	494.431094	145.923293	-434.675209	395.942388	169.601051	-507.087671	-164.936842	857.695795	-316.053365	33.156987	81.989809	-515.262190	33.100272	82.156212	-115.108122	
503	2.5150	555.633481	1254.203832	-163.366512	540.907044	1254.053492	-496.133210	540.561448	1287.608311	-338.494557	468.108137	1165.099724	-324.344553	579.990812	997.481922	-72.055093	728.655817	847.749079	-130.607221	510.596348	977.801266	-574.199721	704.384266	860.270510	-518.930707	11.677697	1129.251384	-338.900625	161.401483	1114.800465	-472.092958	124.856890	1146.126229	-191.018492	203.564672	1086.561530	-440.213095	173.375927	1107.209863	-208.717666	36.193839	1186.201202	-297.963027	52.679999	1187.549544	-378.349679	100.416601	1071.572842	-140.071431	107.431928	1025.534533	-496.341195	188.556045	1041.453162	-138.827769	276.627504	1030.916561	-138.781696	346.525948	988.329296	-111.538154	288.642655	1052.734581	-167.495379	456.284680	889.833451	-135.989109	447.722548	870.486080	-249.115019	399.697899	791.586693	-127.072339	347.051160	722.994333	-150.370079	271.293339	682.714630	-147.163128	358.920959	715.741717	-187.122633	176.106827	612.320161	-155.788134	193.771825	627.803365	-236.548470	89.795960	606.382262	-199.310570	329.121851	447.419195	-191.934461	228.554281	493.667170	-137.615588	259.087752	486.618063	-243.469605	200.649324	919.306765	-515.072238	257.794133	853.655515	-509.550408	287.263705	868.815544	-493.259644	273.118406	765.885036	-508.195326	315.771269	678.846622	-488.237254	316.493119	646.186129	-390.238863	312.475785	575.553453	-515.299456	335.809640	493.203525	-502.508504	313.521689	405.190434	-506.839143	352.436545	495.358336	-465.101566	306.118200	299.631461	-497.321713	316.208284	295.401848	-417.794247	234.371809	278.769678	-462.678733	489.088136	141.340394	-434.527793	390.976826	166.424486	-506.993904	-164.939462	857.707198	-315.938379	33.150440	82.000873	-515.234699	33.094417	82.153272	-115.119325	
504	2.5200	555.237689	1254.276854	-162.680667	541.902152	1253.466741	-495.358103	540.732213	1287.454390	-337.563265	468.457056	1164.775915	-323.540077	579.484683	997.316261	-71.954798	728.619966	848.277829	-130.381617	512.169742	977.954715	-575.470647	705.114079	859.749809	-519.004543	11.652781	1129.246686	-339.779711	161.704353	1114.433543	-472.366545	124.422498	1146.410536	-191.788180	203.789619	1086.125845	-440.563887	173.312663	1107.435416	-208.779718	36.211740	1186.444912	-299.002560	53.036990	1187.450491	-379.344252	100.117062	1072.498619	-140.696901	107.312569	1024.937727	-496.617884	188.350831	1043.272703	-139.152053	276.498969	1033.521049	-139.581527	346.711421	991.572877	-112.651048	288.039532	1055.016109	-168.886534	457.348620	893.978395	-136.201498	449.133905	874.498097	-249.965993	401.902340	795.297458	-127.637850	349.696212	726.304339	-150.863176	274.225071	685.582038	-147.536526	361.818249	719.347643	-187.329800	179.751831	614.366631	-155.930838	196.756175	629.973579	-236.855231	93.173430	607.747020	-199.803314	334.630801	451.621451	-192.106945	233.457429	496.736255	-137.707318	263.938582	489.907351	-243.591740	199.837138	918.084460	-515.393742	256.558480	852.008415	-509.856214	286.040709	866.970027	-493.332031	270.938770	764.159250	-508.909482	313.479048	676.832344	-488.287625	313.885017	644.164657	-390.142898	309.706735	573.869268	-515.398897	332.808185	491.525520	-502.606107	310.359876	403.415769	-506.901750	349.490411	493.481272	-465.176506	302.808629	297.983138	-497.409808	312.988755	293.652474	-417.814190	230.924737	278.209625	-462.529164	483.336728	136.465908	-433.828992	385.900852	163.583957	-506.917384	-165.023091	857.552928	-316.276707	33.161301	82.000214	-515.252303	33.099388	82.155535	-115.104332	
505	2.5250	554.759110	1254.264654	-161.909573	542.936472	1252.965464	-494.303962	540.772111	1287.301376	-336.742066	469.012555	1164.246009	-322.929587	579.068022	997.118366	-71.680906	728.550401	848.746686	-130.136396	513.840261	978.197224	-576.733003	706.047018	859.485130	-519.516927	11.590531	1129.164620	-340.757481	161.980588	1113.929445	-472.694607	123.860457	1146.434769	-192.303815	203.851306	1085.692503	-440.810019	173.062732	1107.836253	-209.264207	36.138380	1186.555916	-300.043844	53.519410	1187.283067	-380.427536	99.786986	1073.221166	-141.378442	107.167280	1024.256846	-496.948921	188.138678	1045.104653	-139.466922	276.340745	1035.994996	-140.401529	346.955929	994.769970	-113.536339	287.627280	1057.494449	-169.910236	458.520351	898.500514	-136.351183	450.428931	878.298248	-250.702188	404.220073	798.873385	-128.335543	352.513719	729.475744	-151.289718	277.332121	688.072971	-147.969181	363.921202	722.039687	-188.547188	183.412912	616.365932	-156.152082	199.658408	631.849843	-237.169714	96.872307	608.625805	-199.810462	340.280491	455.679239	-192.210040	238.521144	499.606911	-137.777548	268.828714	493.107346	-243.655513	199.040780	916.868904	-515.609380	255.383504	850.397788	-510.143274	284.885360	865.186141	-493.420551	269.198881	762.398394	-509.184649	311.540370	675.181594	-488.243210	311.625693	642.431794	-390.013859	307.267694	572.248549	-515.325235	330.046514	489.784602	-502.534924	307.167625	401.856898	-506.942047	346.727361	491.684229	-465.225546	299.325945	296.513771	-497.450527	309.473937	292.173465	-417.894753	227.426923	277.751867	-462.452115	477.724324	132.478983	-433.811040	380.671624	160.867236	-506.833965	-164.995235	857.690275	-316.013031	33.156168	82.028305	-515.263238	33.092555	82.175953	-115.104103	
